<?xml version="1.0" encoding="UTF-8" standalone="no"?>
<svg
   width="32"
   height="32"
   version="1.1"
   id="svg1678"
   sodipodi:docname="DD_IUCN_3_1.svg"
   inkscape:version="1.2.2 (b0a8486541, 2022-12-01)"
   xmlns:inkscape="http://www.inkscape.org/namespaces/inkscape"
   xmlns:sodipodi="http://sodipodi.sourceforge.net/DTD/sodipodi-0.dtd"
   xmlns="http://www.w3.org/2000/svg"
   xmlns:svg="http://www.w3.org/2000/svg">
  <defs
     id="defs1682" />
  <sodipodi:namedview
     id="namedview1680"
     pagecolor="#ffffff"
     bordercolor="#000000"
     borderopacity="0.25"
     inkscape:showpageshadow="2"
     inkscape:pageopacity="0.0"
     inkscape:pagecheckerboard="0"
     inkscape:deskcolor="#d1d1d1"
     showgrid="false"
     inkscape:zoom="24.53125"
     inkscape:cx="15.979618"
     inkscape:cy="16.040764"
     inkscape:window-width="1854"
     inkscape:window-height="1011"
     inkscape:window-x="0"
     inkscape:window-y="0"
     inkscape:window-maximized="1"
     inkscape:current-layer="svg1678" />
  <path
     fill="#c6c6c6"
     stroke="#676767"
     stroke-linecap="round"
     stroke-width=".50581741"
     d="M28.325667 15.210991c0 6.864727-5.56496 12.42969-12.42969 12.42969-6.8647299 0-12.4296909-5.564963-12.4296909-12.42969 0-6.8647281 5.564961-12.4296904 12.4296909-12.4296904 6.86473 0 12.42969 5.5649623 12.42969 12.4296904h0z"
     overflow="visible"
     style="marker:none"
     id="path1674" />
  <path
     fill="#ffffff"
     d="m 10.403927,18.037611 h 0.70086 c 0.79904,2e-6 1.40847,-0.230479 1.82832,-0.691442 0.42321,-0.460959 0.63483,-1.130731 0.63483,-2.009319 0,-0.874641 -0.20992,-1.540473 -0.62975,-1.997501 -0.41984,-0.457015 -1.03098,-0.685525 -1.8334,-0.685533 l -0.70086,0 z m 0.10665,-7.103535 c 1.15116,9e-6 2.00777,0.09653 2.56981,0.289578 0.56542,0.189121 1.04958,0.512187 1.45249,0.969201 0.3555,0.397932 0.61959,0.856923 0.79227,1.376975 0.17266,0.520065 0.25901,1.109071 0.25902,1.76702 -1e-5,0.665837 -0.08636,1.260752 -0.25902,1.784748 -0.17268,0.520061 -0.43677,0.979052 -0.79227,1.376975 -0.4063,0.457022 -0.89385,0.782059 -1.46265,0.975111 -0.56882,0.189112 -1.42203,0.283669 -2.55965,0.283669 H 8.4486471 v -8.823277 z m 8.52708,7.103535 h 0.70084 c 0.79904,2e-6 1.40848,-0.230479 1.82832,-0.691442 0.42321,-0.460959 0.63483,-1.130731 0.63483,-2.009319 0,-0.874641 -0.20992,-1.540473 -0.62975,-1.997501 -0.41984,-0.457015 -1.03098,-0.685525 -1.8334,-0.685533 l -0.70084,0 z m 0.10664,-7.103535 c 1.15117,9e-6 2.00776,0.09653 2.5698,0.289578 0.56543,0.189121 1.04958,0.512187 1.45249,0.969201 0.3555,0.397932 0.61959,0.856923 0.79228,1.376975 0.17267,0.520065 0.259,1.109071 0.25901,1.76702 -1e-5,0.665837 -0.08634,1.260752 -0.25901,1.784748 -0.17269,0.520061 -0.43678,0.979052 -0.79228,1.376975 -0.40629,0.457022 -0.89384,0.782059 -1.46264,0.975111 -0.56882,0.189112 -1.42204,0.283669 -2.55965,0.283669 h -2.06193 v -8.823277 z"
     font-family="FreeSans"
     font-size="12.2814px"
     font-weight="700"
     style="line-height:125%;text-align:center"
     text-anchor="middle"
     id="path1676"
     sodipodi:nodetypes="cscsccccccccccccsccccscsccccccccccccsccc" />
</svg>
